<?xml version="1.0" encoding="UTF-8"?>
<svg id="Layer_1" data-name="Layer 1" xmlns="http://www.w3.org/2000/svg" viewBox="0 0 600 302.47">
  <defs>
    <style>
      .cls-1 {
        fill: #fff;
      }

      .cls-2 {
        fill: #192f3a;
      }

      .cls-3 {
        fill: #fdb728;
      }
    </style>
  </defs>
  <rect class="cls-2" width="600" height="302.47"/>
  <g>
    <g>
      <path class="cls-1" d="M104.91,156.37l-29.91-81.51h23.44l19.12,55.21,18.35-55.21h23.59l-30.07,81.51h-24.52Z"/>
      <path class="cls-1" d="M202.83,73.32c5.24,0,9.56.84,12.95,2.54s5.99,3.51,7.79,5.46c1.8,1.95,2.9,3.28,3.32,4h1.23v-10.46h23.44v81.51h-23.44v-10.46h-1.23c-.41.72-1.52,2.05-3.32,4-1.8,1.95-4.39,3.77-7.79,5.46-3.39,1.69-7.71,2.54-12.95,2.54-6.07,0-11.33-1.21-15.81-3.61-4.47-2.41-8.2-5.64-11.18-9.69-2.98-4.05-5.22-8.59-6.71-13.61-1.49-5.02-2.24-10.15-2.24-15.38s.74-10.35,2.24-15.38c1.49-5.02,3.72-9.56,6.71-13.61,2.98-4.05,6.71-7.28,11.18-9.69,4.47-2.41,9.74-3.61,15.81-3.61ZM209.62,92.24c-4.22,0-7.74,1.15-10.56,3.46-2.83,2.31-4.93,5.26-6.32,8.84-1.39,3.59-2.08,7.28-2.08,11.07s.69,7.49,2.08,11.07c1.39,3.59,3.49,6.54,6.32,8.84,2.83,2.31,6.35,3.46,10.56,3.46s7.73-1.15,10.56-3.46c2.83-2.31,4.93-5.25,6.32-8.84,1.39-3.59,2.08-7.28,2.08-11.07s-.69-7.48-2.08-11.07c-1.39-3.59-3.5-6.54-6.32-8.84-2.83-2.31-6.35-3.46-10.56-3.46Z"/>
      <path class="cls-1" d="M269.9,156.37v-81.51h23.44v11.69h.77c.93-1.64,2.29-3.48,4.09-5.54,1.8-2.05,4.21-3.84,7.25-5.38,3.03-1.54,6.91-2.31,11.64-2.31,6.37,0,11.56,1.46,15.57,4.38,4.01,2.92,6.94,6.67,8.79,11.23,1.85,4.56,2.78,9.36,2.78,14.38v53.06h-23.44v-49.06c0-3.9-1.06-7.33-3.16-10.3-2.11-2.97-5.47-4.46-10.1-4.46-3.5,0-6.27.82-8.33,2.46-2.06,1.64-3.55,3.74-4.47,6.3-.93,2.57-1.39,5.28-1.39,8.15v46.91h-23.44Z"/>
    </g>
    <g>
      <path class="cls-3" d="M403.44,174.46c0,10.11-1.78,18.54-5.34,25.29s-7.9,12.18-13.02,16.3c-5.12,4.12-10.58,7.06-16.39,8.8s-11.02,2.62-15.64,2.62c-8.49,0-16.58-2-24.26-5.99s-14.08-9.3-19.2-15.92l19.1-18.92c2.5,4,5.74,7.12,9.74,9.37,3.99,2.25,8.12,3.37,12.36,3.37,2.87,0,5.68-.53,8.43-1.59,2.75-1.06,5.21-2.59,7.4-4.59,2.18-2,3.93-4.43,5.25-7.3,1.31-2.87,1.97-6.18,1.97-9.93v-100.96h29.59v99.46Z"/>
      <path class="cls-3" d="M525,185.32c0,5.62-1.22,10.96-3.65,16.01-2.43,5.06-5.84,9.52-10.21,13.39-4.37,3.87-9.55,6.96-15.55,9.27-5.99,2.31-12.61,3.47-19.85,3.47-6.49,0-12.33-.37-17.51-1.12-5.18-.75-10.05-1.93-14.61-3.56-4.56-1.62-8.93-3.71-13.11-6.27-4.19-2.56-8.52-5.65-13.02-9.27l20.6-20.79c5.99,5,11.86,8.52,17.61,10.58,5.74,2.06,11.99,3.09,18.73,3.09,2.75,0,5.34-.4,7.77-1.22,2.43-.81,4.56-1.9,6.37-3.28,1.81-1.37,3.25-3,4.31-4.87,1.06-1.87,1.59-3.93,1.59-6.18,0-2.37-.44-4.5-1.31-6.37-.87-1.87-2.43-3.68-4.68-5.43-2.25-1.75-5.37-3.53-9.37-5.34-4-1.81-9.12-3.84-15.36-6.09-5.5-2-10.77-4.28-15.83-6.84-5.06-2.56-9.49-5.65-13.3-9.27-3.81-3.62-6.87-7.87-9.18-12.74-2.31-4.87-3.46-10.61-3.46-17.23s1.28-12.24,3.84-17.61c2.56-5.37,6.05-9.96,10.49-13.77,4.43-3.81,9.61-6.77,15.55-8.9,5.93-2.12,12.33-3.18,19.2-3.18,11.49,0,21.17,1.5,29.03,4.5,7.87,3,14.86,7.37,20.98,13.11l-20.23,20.42c-3.75-3.62-7.93-6.4-12.55-8.34-4.62-1.93-10.05-2.9-16.3-2.9-2.87,0-5.53.44-7.96,1.31-2.44.87-4.53,2.03-6.28,3.47-1.75,1.44-3.15,3.12-4.21,5.06-1.06,1.94-1.59,3.97-1.59,6.09,0,2.37.5,4.53,1.5,6.46,1,1.94,2.68,3.81,5.06,5.62,2.37,1.81,5.53,3.62,9.46,5.43,3.93,1.81,8.83,3.78,14.7,5.9,7.49,2.62,13.92,5.5,19.29,8.62,5.37,3.12,9.74,6.56,13.11,10.3,3.37,3.75,5.87,7.96,7.49,12.64,1.62,4.68,2.44,9.96,2.44,15.83Z"/>
    </g>
  </g>
</svg>