<?xml version="1.0" encoding="UTF-8"?>
<svg xmlns="http://www.w3.org/2000/svg" viewBox="0 0 1080 1080">
  <defs>
    <style>
      .cls-1 {
        fill: #fcb72c;
      }

      .cls-2 {
        stroke: #b92425;
        stroke-width: 2px;
      }

      .cls-2, .cls-3 {
        stroke-miterlimit: 10;
      }

      .cls-4 {
        fill: #fff;
      }

      .cls-5 {
        fill: #231f20;
      }

      .cls-6 {
        fill: #b92425;
      }

      .cls-7 {
        fill: #192f3a;
      }

      .cls-8 {
        fill: #c03d26;
      }

      .cls-9 {
        fill: #221e1f;
      }

      .cls-10 {
        fill: #c98f28;
      }

      .cls-3 {
        fill: none;
        stroke: #231f20;
      }
    </style>
  </defs>
  <g id="Default">
    <g>
      <path class="cls-1" d="M838.06,722.89c-5.42-4.93-11.12-9.56-16.94-14.03,59.46-66.61,95.65-154.44,95.65-250.76,0-134.89-70.93-253.15-177.48-319.71l15.09-41.3-39.33,27.38c-3.38-1.78-6.76-3.55-10.2-5.22l19.61-66.55c-23.34,31.02-46.74,43.55-65.85,47.79-13.29-4.41-26.88-8.15-40.78-11.07L645.94,0c-43.93,41.31-88.08,66.71-120.92,81.72-16.5.65-32.72,2.37-48.61,5.07,6.56-21.76,17.33-59.81,9.46-50.72-21.07,24.33-48.78,48.07-74.41,67.79-144.79,52.55-248.24,191.31-248.24,354.25,0,96.65,36.43,184.77,96.26,251.47-1.95,1.52-4.02,2.95-5.9,4.51-6.39,5.3-12.18,11.57-19,16.28-13.95,8.7-30.98,13.09-41.5,26.61-26.33,32.45-41.57,98.58-18.65,139.84,5.01,8.47,14.35,14.97,19.87,23.77,5.47,8.96,9.4,19.46,14.98,28.55,83.78,158.11,403.13,150.23,548.04,94.49,59.49-22.34,98.47-60.07,124.81-117.09,3.99-9.53,10.89-16.8,18.12-23.84,7.91-8.32,12.17-19.18,14.62-31.93,6.81-36.95-5.59-87.7-26.19-113.65-12.5-17.33-35-20.81-50.63-34.23Z"/>
      <g>
        <g>
          <ellipse class="cls-9" cx="382.68" cy="495.96" rx="65.32" ry="77.28"/>
          <circle class="cls-5" cx="382.56" cy="503.67" r="30.93"/>
          <circle class="cls-4" cx="353.66" cy="486" r="14.41"/>
        </g>
        <ellipse class="cls-3" cx="382.68" cy="495.96" rx="65.32" ry="77.28"/>
      </g>
      <g>
        <g>
          <ellipse class="cls-9" cx="692.25" cy="495.96" rx="65.32" ry="77.28"/>
          <circle class="cls-5" cx="692.13" cy="503.67" r="30.93"/>
          <circle class="cls-4" cx="663.23" cy="486" r="14.41"/>
        </g>
        <ellipse class="cls-3" cx="692.25" cy="495.96" rx="65.32" ry="77.28"/>
      </g>
    </g>
    <g>
      <path class="cls-8" d="M599.05,601.84c-14.74-8.44-21.92-18.94-33.06-30.8-7.66-8.16-16.78-11.94-25.99-12.12-9.21.18-18.33,3.96-25.99,12.12-11.14,11.86-18.31,22.36-33.06,30.8-7.05,4.04-28.25,11.05-29.75,19.18,1.47.2,2.27-1.73,3.2-1.92,1.74-.35,8.63,1.35,11.75,1.26,16.32-.45,30.24-12.6,47.87-13.9,6.9-.51,16.21-1.05,25.97-1.24,9.76.2,19.07.73,25.97,1.24,17.63,1.31,31.55,13.46,47.87,13.9,3.13.09,10.01-1.61,11.75-1.26.93.19,1.73,2.12,3.2,1.92-1.51-8.13-22.71-15.15-29.75-19.18Z"/>
      <path class="cls-2" d="M494.72,614.83h90.56c20.03,0,28.73,12.37,12.94,18.38l-47.62,23.11c-7.92,3.02-19.1,2.88-26.7-.33l-42.94-23.11c-14.75-6.23-5.73-18.05,13.76-18.05Z"/>
      <path class="cls-6" d="M654.28,618.6c-2.33-.47-11.54,1.8-15.73,1.69-21.84-.6-40.47-16.86-64.06-18.61-9.18-.68-21.52-1.39-34.49-1.66h0c-12.97.27-25.31.98-34.49,1.66-23.59,1.75-42.22,18.01-64.06,18.61-4.19.11-13.4-2.16-15.73-1.69-1.25.25,4.59,4.41,5.02,5.07.24.37.45.72.69.86,23.25,13.53,42.04,4.87,65.75,1.34,12.87-1.92,27.75-2.69,42.81-2.57h0c15.07-.12,29.94.66,42.81,2.57,23.71,3.54,42.5,12.19,65.75-1.34.24-.14.46-.49.69-.86.43-.66,6.27-4.82,5.02-5.07Z"/>
    </g>
    <g>
      <path class="cls-5" d="M293.26,383.28c2.98-1.64,6.1-3.03,9.21-4.39.37-.16.73-.32,1.1-.48.24-.1,1.58-.67.84-.36.89-.37,1.78-.74,2.67-1.11,1.99-.81,4-1.59,6.02-2.34,4.94-1.85,9.94-3.54,14.98-5.09,13.2-4.05,26.69-7.14,40.33-9.28,17.06-2.68,34.36-3.82,51.62-3.48,20.59.41,41.1,2.98,61.17,7.63,2.69.62,5.36,1.28,8.03,1.97,3.12.81,4.45-4.01,1.33-4.82-20.61-5.35-41.78-8.58-63.05-9.54-18.08-.81-36.2.06-54.13,2.49-14.29,1.94-28.44,4.9-42.29,8.91-9.56,2.77-18.98,6.03-28.15,9.89-4.03,1.7-8.29,3.34-12.06,5.59-.05.03-.1.05-.15.08-2.82,1.55-.3,5.87,2.52,4.32h0Z"/>
      <path class="cls-5" d="M790.26,378.96c-3.02-1.66-6.19-3.07-9.34-4.44-8.69-3.79-17.62-7.04-26.68-9.82-13.3-4.09-26.91-7.19-40.66-9.33-17.46-2.73-35.15-3.96-52.82-3.6-20.88.43-41.72,3.05-62.07,7.75-2.76.64-5.51,1.32-8.26,2.03-3.11.81-1.79,5.63,1.33,4.82,20.33-5.27,41.15-8.46,62.13-9.38,17.7-.77,35.51,0,53.06,2.42,14.14,1.95,28.15,4.9,41.86,8.89,5.3,1.54,10.56,3.24,15.76,5.1,2.2.79,4.4,1.61,6.58,2.46.97.38,1.95.77,2.92,1.16.41.16.81.33,1.21.5.22.09.44.18.66.27.11.05.86.36.49.2-.4-.17.29.12.39.17.18.08.36.15.54.23.41.18.82.35,1.23.53.69.3,1.38.61,2.07.92,1.16.52,2.31,1.06,3.45,1.61s2.32,1.17,3.49,1.75c.05.02.1.05.14.08,2.82,1.55,5.35-2.77,2.52-4.32h0Z"/>
    </g>
    <path class="cls-10" d="M259.49,709.57s253.51,245.43,561.63-.71c0,0-281.12,154.14-561.63.71Z"/>
  </g>
  <g id="Layer_4" data-name="Layer 4">
    <g>
      <g>
        <path class="cls-7" d="M392.91,938.92l-22.62-61.64h17.73l14.46,41.76,13.88-41.76h17.84l-22.74,61.64h-18.54Z"/>
        <path class="cls-7" d="M466.96,876.11c3.96,0,7.23.64,9.8,1.92,2.57,1.28,4.53,2.66,5.89,4.13,1.36,1.47,2.2,2.48,2.51,3.02h.93v-7.91h17.73v61.64h-17.73v-7.91h-.93c-.31.54-1.15,1.55-2.51,3.02-1.36,1.48-3.32,2.85-5.89,4.13-2.57,1.28-5.83,1.92-9.8,1.92-4.59,0-8.57-.91-11.95-2.73-3.38-1.82-6.2-4.26-8.45-7.33-2.26-3.06-3.95-6.49-5.07-10.29-1.13-3.8-1.69-7.68-1.69-11.63s.56-7.83,1.69-11.63c1.13-3.8,2.82-7.23,5.07-10.29,2.25-3.06,5.07-5.5,8.45-7.33,3.38-1.82,7.37-2.73,11.95-2.73ZM472.09,890.42c-3.19,0-5.85.87-7.99,2.62-2.14,1.74-3.73,3.98-4.78,6.69-1.05,2.71-1.57,5.51-1.57,8.37s.53,5.66,1.57,8.37c1.05,2.72,2.64,4.94,4.78,6.69,2.14,1.74,4.8,2.62,7.99,2.62s5.85-.87,7.99-2.62c2.14-1.74,3.73-3.97,4.78-6.69,1.05-2.71,1.57-5.5,1.57-8.37s-.53-5.66-1.57-8.37c-1.05-2.71-2.64-4.94-4.78-6.69-2.14-1.74-4.8-2.62-7.99-2.62Z"/>
        <path class="cls-7" d="M517.69,938.92v-61.64h17.73v8.84h.58c.7-1.24,1.73-2.63,3.09-4.19,1.36-1.55,3.19-2.91,5.48-4.07,2.29-1.16,5.23-1.74,8.8-1.74,4.82,0,8.75,1.1,11.78,3.31,3.03,2.21,5.25,5.04,6.65,8.49,1.4,3.45,2.1,7.08,2.1,10.88v40.13h-17.73v-37.1c0-2.95-.8-5.54-2.39-7.79-1.59-2.25-4.14-3.37-7.64-3.37-2.64,0-4.74.62-6.3,1.86-1.56,1.24-2.68,2.83-3.38,4.77-.7,1.94-1.05,3.99-1.05,6.17v35.47h-17.73Z"/>
      </g>
      <g>
        <path class="cls-4" d="M618.68,952.6c0,7.65-1.35,14.02-4.04,19.12-2.69,5.1-5.97,9.21-9.85,12.32-3.87,3.12-8,5.34-12.39,6.66s-8.34,1.98-11.83,1.98c-6.42,0-12.54-1.51-18.34-4.53-5.81-3.02-10.65-7.03-14.52-12.04l14.45-14.31c1.89,3.02,4.34,5.38,7.37,7.08,3.02,1.7,6.14,2.55,9.35,2.55,2.17,0,4.3-.4,6.37-1.2,2.08-.8,3.94-1.96,5.6-3.47,1.65-1.51,2.97-3.35,3.97-5.52.99-2.17,1.49-4.67,1.49-7.51v-76.35h22.38v75.22Z"/>
        <path class="cls-4" d="M710.61,960.82c0,4.25-.92,8.29-2.76,12.11-1.84,3.83-4.41,7.2-7.72,10.13-3.31,2.93-7.22,5.27-11.76,7.01-4.53,1.75-9.54,2.62-15.01,2.62-4.91,0-9.33-.28-13.24-.85-3.92-.57-7.6-1.46-11.05-2.69-3.45-1.23-6.75-2.81-9.92-4.75-3.17-1.93-6.45-4.27-9.85-7.01l15.58-15.72c4.53,3.78,8.97,6.44,13.32,8,4.34,1.56,9.07,2.34,14.16,2.34,2.08,0,4.04-.31,5.88-.92,1.84-.61,3.45-1.44,4.82-2.48,1.37-1.04,2.45-2.27,3.26-3.68.8-1.42,1.2-2.97,1.2-4.67,0-1.79-.33-3.4-.99-4.82-.66-1.42-1.84-2.78-3.54-4.11-1.7-1.32-4.06-2.67-7.08-4.04-3.02-1.37-6.89-2.9-11.62-4.6-4.16-1.51-8.15-3.23-11.97-5.17-3.83-1.93-7.18-4.27-10.06-7.01-2.88-2.74-5.19-5.95-6.94-9.63-1.75-3.68-2.62-8.03-2.62-13.03s.97-9.25,2.9-13.32c1.93-4.06,4.58-7.53,7.93-10.41,3.35-2.88,7.27-5.12,11.76-6.73,4.48-1.6,9.32-2.41,14.52-2.41,8.69,0,16.01,1.13,21.96,3.4,5.95,2.27,11.24,5.57,15.87,9.92l-15.3,15.44c-2.83-2.74-6-4.84-9.49-6.3-3.49-1.46-7.6-2.2-12.32-2.2-2.17,0-4.18.33-6.02.99-1.84.66-3.42,1.54-4.75,2.62-1.32,1.09-2.39,2.36-3.19,3.82-.8,1.47-1.2,3-1.2,4.6,0,1.8.38,3.42,1.13,4.89.75,1.47,2.03,2.88,3.82,4.25,1.79,1.37,4.18,2.74,7.15,4.11,2.97,1.37,6.68,2.86,11.12,4.46,5.67,1.98,10.53,4.16,14.59,6.52,4.06,2.36,7.37,4.96,9.92,7.79,2.55,2.83,4.44,6.02,5.67,9.56,1.23,3.54,1.84,7.53,1.84,11.97Z"/>
      </g>
    </g>
  </g>
</svg>