<?xml version="1.0" encoding="UTF-8"?>
<svg xmlns="http://www.w3.org/2000/svg" viewBox="0 0 1080 1080">
  <defs>
    <style>
      .cls-1 {
        fill: #fcb72c;
      }

      .cls-2 {
        stroke: #fff;
        stroke-width: 8px;
      }

      .cls-2, .cls-3, .cls-4 {
        stroke-miterlimit: 10;
      }

      .cls-2, .cls-4 {
        fill: none;
      }

      .cls-3 {
        stroke: #b92425;
        stroke-width: 2px;
      }

      .cls-5 {
        fill: #fff;
      }

      .cls-6 {
        fill: #231f20;
      }

      .cls-7 {
        fill: #b92425;
      }

      .cls-8 {
        fill: #c03d26;
      }

      .cls-9 {
        fill: #221e1f;
      }

      .cls-10 {
        fill: #c98f28;
      }

      .cls-11 {
        fill: #0db3ce;
      }

      .cls-4 {
        stroke: #231f20;
      }
    </style>
  </defs>
  <g id="Base">
    <path class="cls-1" d="M838.06,722.89c-5.42-4.93-11.12-9.56-16.94-14.03,59.46-66.61,95.65-154.44,95.65-250.76,0-134.89-70.93-253.15-177.48-319.71l15.09-41.3-39.33,27.38c-3.38-1.78-6.76-3.55-10.2-5.22l19.61-66.55c-23.34,31.02-46.74,43.55-65.85,47.79-13.29-4.41-26.88-8.15-40.78-11.07L645.94,0c-43.93,41.31-88.08,66.71-120.92,81.72-16.5.65-32.72,2.37-48.61,5.07,6.56-21.76,17.33-59.81,9.46-50.72-21.07,24.33-48.78,48.07-74.41,67.79-144.79,52.55-248.24,191.31-248.24,354.25,0,96.65,36.43,184.77,96.26,251.47-1.95,1.52-4.02,2.95-5.9,4.51-6.39,5.3-12.18,11.57-19,16.28-13.95,8.7-30.98,13.09-41.5,26.61-26.33,32.45-41.57,98.58-18.65,139.84,5.01,8.47,14.35,14.97,19.87,23.77,5.47,8.96,9.4,19.46,14.98,28.55,83.78,158.11,403.13,150.23,548.04,94.49,59.49-22.34,98.47-60.07,124.81-117.09,3.99-9.53,10.89-16.8,18.12-23.84,7.91-8.32,12.17-19.18,14.62-31.93,6.81-36.95-5.59-87.7-26.19-113.65-12.5-17.33-35-20.81-50.63-34.23Z"/>
    <path class="cls-10" d="M259.49,709.57s253.51,245.43,561.63-.71c0,0-281.12,154.14-561.63.71Z"/>
  </g>
  <g id="Nervous">
    <g>
      <path class="cls-6" d="M291.34,383.53c3.22,1.33,6.58,2.36,9.92,3.35,8.97,2.66,18.15,4.64,27.39,6.1,13.85,2.19,27.87,3.24,41.89,3.13,17.74-.14,35.47-2.11,52.81-5.81,20.73-4.41,40.88-11.37,60.05-20.39,2.61-1.23,5.2-2.5,7.77-3.8,2.87-1.46.34-5.77-2.52-4.32-19.13,9.7-39.31,17.24-60.17,22.23-17.21,4.12-34.81,6.48-52.5,6.99-7.63.22-15.26.1-22.88-.36-3.43-.21-6.85-.48-10.26-.83-1.61-.16-3.23-.34-4.84-.54-.76-.09-1.52-.19-2.28-.29s-1.12-.15-2.08-.29c-9.7-1.38-19.34-3.33-28.77-5.99-2.81-.79-5.59-1.65-8.35-2.59-1.23-.42-2.45-.96-3.69-1.35-.05-.02-.11-.04-.16-.06-1.25-.52-2.75.56-3.08,1.75-.39,1.44.49,2.56,1.75,3.08h0Z"/>
      <path class="cls-6" d="M787.74,378.96c-.33.14.79-.32.43-.18-.16.06-.32.13-.48.2-.6.24-1.21.47-1.82.7-2.32.86-4.67,1.64-7.04,2.37-8.6,2.64-17.42,4.6-26.3,6.05-6.13,1-11.85,1.69-18.29,2.21-7.24.59-14.51.85-21.77.8-17.34-.12-34.64-2.02-51.61-5.57-20.82-4.36-41.12-11.14-60.47-19.95-2.69-1.23-5.37-2.5-8.03-3.8-1.21-.59-2.7-.33-3.42.9-.64,1.1-.32,2.83.9,3.42,19.97,9.76,40.92,17.52,62.56,22.66,17.69,4.2,35.83,6.68,54.01,7.23,14.38.44,28.77-.36,43.01-2.4,9.61-1.38,19.15-3.34,28.47-6.05,3.93-1.14,7.86-2.39,11.64-3.96.24-.1.49-.2.73-.31,1.24-.54,1.52-2.36.9-3.42-.75-1.28-2.18-1.43-3.42-.9h0Z"/>
    </g>
    <g>
      <path class="cls-8" d="M599.05,601.84c-14.74-8.44-21.92-18.94-33.06-30.8-7.66-8.16-16.78-11.94-25.99-12.12-9.21.18-18.33,3.96-25.99,12.12-11.14,11.86-18.31,22.36-33.06,30.8-7.05,4.04-28.25,11.05-29.75,19.18,1.47.2,2.27-1.73,3.2-1.92,1.74-.35,8.63,1.35,11.75,1.26,16.32-.45,30.24-12.6,47.87-13.9,6.9-.51,16.21-1.05,25.97-1.24,9.76.2,19.07.73,25.97,1.24,17.63,1.31,31.55,13.46,47.87,13.9,3.13.09,10.01-1.61,11.75-1.26.93.19,1.73,2.12,3.2,1.92-1.51-8.13-22.71-15.15-29.75-19.18Z"/>
      <path class="cls-3" d="M494.72,614.83h90.56c20.03,0,28.73,12.37,12.94,18.38l-47.62,23.11c-7.92,3.02-19.1,2.88-26.7-.33l-42.94-23.11c-14.75-6.23-5.73-18.05,13.76-18.05Z"/>
      <path class="cls-7" d="M654.28,618.6c-2.33-.47-11.54,1.8-15.73,1.69-21.84-.6-40.47-16.86-64.06-18.61-9.18-.68-21.52-1.39-34.49-1.66h0c-12.97.27-25.31.98-34.49,1.66-23.59,1.75-42.22,18.01-64.06,18.61-4.19.11-13.4-2.16-15.73-1.69-1.25.25,4.59,4.41,5.02,5.07.24.37.45.72.69.86,23.25,13.53,42.04,4.87,65.75,1.34,12.87-1.92,27.75-2.69,42.81-2.57h0c15.07-.12,29.94.66,42.81,2.57,23.71,3.54,42.5,12.19,65.75-1.34.24-.14.46-.49.69-.86.43-.66,6.27-4.82,5.02-5.07Z"/>
    </g>
    <path class="cls-11" d="M854.02,315.9c-1.3-10.42-7.76-22.74-13.65-34.44-5.4-10.66-11.82-23.54-16.84-33.29-6.98-12.63-10.3-20.99-19.63-2.68-5.68,10.78-11.75,23.16-17.38,34.21-7.53,14.94-14.8,28.44-14.98,41.38-1.02,20.19,11.72,40.35,32.04,44.86,30.76,7.01,54.87-20.2,50.46-49.87l-.02-.17Z"/>
    <path class="cls-2" d="M793,300.96s-13,24.22,0,39.13"/>
    <g>
      <g>
        <ellipse class="cls-9" cx="382.68" cy="495.96" rx="65.32" ry="77.28"/>
        <circle class="cls-6" cx="382.56" cy="503.67" r="30.93"/>
        <circle class="cls-5" cx="353.66" cy="486" r="14.41"/>
      </g>
      <ellipse class="cls-4" cx="382.68" cy="495.96" rx="65.32" ry="77.28"/>
    </g>
    <g>
      <g>
        <ellipse class="cls-9" cx="692.25" cy="495.96" rx="65.32" ry="77.28"/>
        <circle class="cls-6" cx="692.13" cy="503.67" r="30.93"/>
        <circle class="cls-5" cx="663.23" cy="486" r="14.41"/>
      </g>
      <ellipse class="cls-4" cx="692.25" cy="495.96" rx="65.32" ry="77.28"/>
    </g>
  </g>
</svg>