<?xml version="1.0" encoding="UTF-8"?>
<svg xmlns="http://www.w3.org/2000/svg" viewBox="0 0 1080 1080">
  <defs>
    <style>
      .cls-1 {
        fill: #fcb72c;
      }

      .cls-2 {
        stroke: #000;
        stroke-width: 16px;
      }

      .cls-2, .cls-3, .cls-4 {
        stroke-miterlimit: 10;
      }

      .cls-2, .cls-4 {
        fill: #fff;
      }

      .cls-3 {
        stroke: #b92425;
        stroke-width: 2px;
      }

      .cls-5 {
        fill: #231f20;
      }

      .cls-6 {
        fill: #b92425;
      }

      .cls-4 {
        stroke: #231f20;
        stroke-width: 8px;
      }

      .cls-7 {
        fill: #c03d26;
      }

      .cls-8 {
        fill: #d6d0d0;
      }

      .cls-9 {
        fill: #c98f28;
      }
    </style>
  </defs>
  <g id="Base">
    <path class="cls-1" d="M838.06,722.89c-5.42-4.93-11.12-9.56-16.94-14.03,59.46-66.61,95.65-154.44,95.65-250.76,0-134.89-70.93-253.15-177.48-319.71l15.09-41.3-39.33,27.38c-3.38-1.78-6.76-3.55-10.2-5.22l19.61-66.55c-23.34,31.02-46.74,43.55-65.85,47.79-13.29-4.41-26.88-8.15-40.78-11.07L645.94,0c-43.93,41.31-88.08,66.71-120.92,81.72-16.5.65-32.72,2.37-48.61,5.07,6.56-21.76,17.33-59.81,9.46-50.72-21.07,24.33-48.78,48.07-74.41,67.79-144.79,52.55-248.24,191.31-248.24,354.25,0,96.65,36.43,184.77,96.26,251.47-1.95,1.52-4.02,2.95-5.9,4.51-6.39,5.3-12.18,11.57-19,16.28-13.95,8.7-30.98,13.09-41.5,26.61-26.33,32.45-41.57,98.58-18.65,139.84,5.01,8.47,14.35,14.97,19.87,23.77,5.47,8.96,9.4,19.46,14.98,28.55,83.78,158.11,403.13,150.23,548.04,94.49,59.49-22.34,98.47-60.07,124.81-117.09,3.99-9.53,10.89-16.8,18.12-23.84,7.91-8.32,12.17-19.18,14.62-31.93,6.81-36.95-5.59-87.7-26.19-113.65-12.5-17.33-35-20.81-50.63-34.23Z"/>
    <path class="cls-9" d="M259.49,709.57s253.51,245.43,561.63-.71c0,0-281.12,154.14-561.63.71Z"/>
  </g>
  <g id="Nerd">
    <path class="cls-5" d="M150.91,466.03c4.9,1.29,9.8,2.58,14.7,3.86,11.77,3.09,23.53,6.19,35.3,9.28,14.23,3.74,28.47,7.48,42.7,11.23,12.31,3.23,24.61,6.47,36.92,9.7,5.98,1.57,11.94,3.22,17.94,4.72.08.02.17.04.25.07,2.53.66,5.44.32,7.71-1.01,2.07-1.21,4.05-3.59,4.6-5.98,1.19-5.23-1.57-10.88-6.98-12.3-4.9-1.29-9.8-2.58-14.7-3.86-11.77-3.09-23.53-6.19-35.3-9.28-14.23-3.74-28.47-7.48-42.7-11.23-12.31-3.23-24.61-6.47-36.92-9.7-5.98-1.57-11.94-3.22-17.94-4.72-.08-.02-.17-.04-.25-.07-2.53-.66-5.44-.32-7.71,1.01-2.07,1.21-4.05,3.59-4.6,5.98-1.19,5.23,1.57,10.88,6.98,12.3h0Z"/>
    <path class="cls-5" d="M460.87,510.25h140.52c6.49,0,12.99.09,19.48,0,.09,0,.18,0,.27,0,5.23,0,10.24-4.6,10-10s-4.39-10-10-10h-140.52c-6.49,0-12.99-.09-19.48,0-.09,0-.18,0-.27,0-5.23,0-10.24,4.6-10,10s4.39,10,10,10h0Z"/>
    <path class="cls-5" d="M923.34,446.75c-4.9,1.29-9.8,2.58-14.7,3.86-11.77,3.09-23.53,6.19-35.3,9.28-14.23,3.74-28.47,7.48-42.7,11.23-12.31,3.23-24.61,6.47-36.92,9.7-5.98,1.57-11.99,3.06-17.94,4.72-.08.02-.17.04-.25.07-5.06,1.33-8.63,7.2-6.98,12.3s6.88,8.41,12.3,6.98c4.9-1.29,9.8-2.58,14.7-3.86,11.77-3.09,23.53-6.19,35.3-9.28,14.23-3.74,28.47-7.48,42.7-11.23,12.31-3.23,24.61-6.47,36.92-9.7,5.98-1.57,11.99-3.06,17.94-4.72.08-.02.17-.04.25-.07,5.06-1.33,8.63-7.2,6.98-12.3s-6.88-8.41-12.3-6.98h0Z"/>
    <rect class="cls-2" x="292.11" y="405.54" width="195.23" height="170.11" rx="6" ry="6"/>
    <rect class="cls-2" x="594.23" y="405.54" width="195.23" height="170.11" rx="6" ry="6"/>
    <rect class="cls-8" x="610" y="433" width="17" height="121"/>
    <rect class="cls-8" x="306" y="433" width="17" height="121"/>
    <polygon class="cls-4" points="776.69 391.76 789.2 357.93 801.72 391.76 835.55 404.27 801.72 416.79 789.2 450.62 776.69 416.79 742.86 404.27 776.69 391.76"/>
    <g>
      <path class="cls-7" d="M599.05,601.84c-14.74-8.44-21.92-18.94-33.06-30.8-7.66-8.16-16.78-11.94-25.99-12.12-9.21.18-18.33,3.96-25.99,12.12-11.14,11.86-18.31,22.36-33.06,30.8-7.05,4.04-28.25,11.05-29.75,19.18,1.47.2,2.27-1.73,3.2-1.92,1.74-.35,8.63,1.35,11.75,1.26,16.32-.45,30.24-12.6,47.87-13.9,6.9-.51,16.21-1.05,25.97-1.24,9.76.2,19.07.73,25.97,1.24,17.63,1.31,31.55,13.46,47.87,13.9,3.13.09,10.01-1.61,11.75-1.26.93.19,1.73,2.12,3.2,1.92-1.51-8.13-22.71-15.15-29.75-19.18Z"/>
      <path class="cls-3" d="M494.72,614.83h90.56c20.03,0,28.73,12.37,12.94,18.38l-47.62,23.11c-7.92,3.02-19.1,2.88-26.7-.33l-42.94-23.11c-14.75-6.23-5.73-18.05,13.76-18.05Z"/>
      <path class="cls-6" d="M654.28,618.6c-2.33-.47-11.54,1.8-15.73,1.69-21.84-.6-40.47-16.86-64.06-18.61-9.18-.68-21.52-1.39-34.49-1.66h0c-12.97.27-25.31.98-34.49,1.66-23.59,1.75-42.22,18.01-64.06,18.61-4.19.11-13.4-2.16-15.73-1.69-1.25.25,4.59,4.41,5.02,5.07.24.37.45.72.69.86,23.25,13.53,42.04,4.87,65.75,1.34,12.87-1.92,27.75-2.69,42.81-2.57h0c15.07-.12,29.94.66,42.81,2.57,23.71,3.54,42.5,12.19,65.75-1.34.24-.14.46-.49.69-.86.43-.66,6.27-4.82,5.02-5.07Z"/>
    </g>
    <g>
      <path class="cls-5" d="M291.34,335.91c3.09.51,6.18,1.06,9.27,1.61,8.72,1.56,17.43,3.19,26.13,4.88,13.51,2.62,27,5.36,40.46,8.2,17.47,3.69,34.9,7.56,52.29,11.59,20.59,4.78,41.12,9.79,61.59,15.05,2.72.7,5.45,1.4,8.17,2.11,3.12.81,4.45-4.01,1.33-4.82-20.79-5.41-41.65-10.57-62.57-15.48-17.82-4.19-35.68-8.19-53.58-12.02-14-2.99-28.02-5.87-42.07-8.62-9.33-1.83-18.68-3.6-28.04-5.29-3.83-.69-7.65-1.41-11.5-2.01-.05,0-.1-.02-.15-.02-1.33-.22-2.69.35-3.08,1.75-.33,1.2.41,2.85,1.75,3.08h0Z"/>
      <path class="cls-5" d="M788.34,331.09c-3.09.51-6.18,1.06-9.27,1.61-8.72,1.56-17.43,3.19-26.13,4.88-13.51,2.62-27,5.36-40.46,8.2-17.47,3.69-34.9,7.56-52.29,11.59-20.59,4.78-41.12,9.79-61.59,15.05-2.72.7-5.45,1.4-8.17,2.11-3.11.81-1.79,5.63,1.33,4.82,20.79-5.41,41.65-10.57,62.57-15.48,17.82-4.19,35.68-8.19,53.58-12.02,14-2.99,28.02-5.87,42.07-8.62,9.33-1.83,18.68-3.6,28.04-5.29,2.66-.48,5.31-.95,7.97-1.41,1.16-.2,2.37-.32,3.52-.6.05-.01.1-.02.15-.02,1.33-.22,2.08-1.87,1.75-3.08-.39-1.41-1.74-1.97-3.08-1.75h0Z"/>
    </g>
  </g>
</svg>