<?xml version="1.0" encoding="UTF-8"?>
<svg xmlns="http://www.w3.org/2000/svg" xmlns:xlink="http://www.w3.org/1999/xlink" viewBox="0 0 1080 1080">
  <defs>
    <style>
      .cls-1 {
        fill: #fcb72c;
      }

      .cls-2 {
        fill: #fff;
      }

      .cls-3, .cls-4 {
        fill: none;
      }

      .cls-5 {
        clip-path: url(#clippath-1);
      }

      .cls-6 {
        fill: #231f20;
      }

      .cls-7 {
        fill: #b92425;
      }

      .cls-8 {
        fill: #c03d26;
      }

      .cls-9 {
        fill: #221e1f;
      }

      .cls-10 {
        fill: #c98f28;
      }

      .cls-4 {
        stroke: #231f20;
      }

      .cls-4, .cls-11 {
        stroke-miterlimit: 10;
      }

      .cls-11 {
        stroke: #b92425;
        stroke-width: 4px;
      }

      .cls-12 {
        clip-path: url(#clippath);
      }
    </style>
    <clipPath id="clippath">
      <rect class="cls-3" x="204" y="455" width="255" height="118"/>
    </clipPath>
    <clipPath id="clippath-1">
      <rect class="cls-3" x="502.7" y="455.45" width="255" height="118"/>
    </clipPath>
  </defs>
  <g id="Base">
    <path class="cls-1" d="M838.06,722.89c-5.42-4.93-11.12-9.56-16.94-14.03,59.46-66.61,95.65-154.44,95.65-250.76,0-134.89-70.93-253.15-177.48-319.71l15.09-41.3-39.33,27.38c-3.38-1.78-6.76-3.55-10.2-5.22l19.61-66.55c-23.34,31.02-46.74,43.55-65.85,47.79-13.29-4.41-26.88-8.15-40.78-11.07L645.94,0c-43.93,41.31-88.08,66.71-120.92,81.72-16.5.65-32.72,2.37-48.61,5.07,6.56-21.76,17.33-59.81,9.46-50.72-21.07,24.33-48.78,48.07-74.41,67.79-144.79,52.55-248.24,191.31-248.24,354.25,0,96.65,36.43,184.77,96.26,251.47-1.95,1.52-4.02,2.95-5.9,4.51-6.39,5.3-12.18,11.57-19,16.28-13.95,8.7-30.98,13.09-41.5,26.61-26.33,32.45-41.57,98.58-18.65,139.84,5.01,8.47,14.35,14.97,19.87,23.77,5.47,8.96,9.4,19.46,14.98,28.55,83.78,158.11,403.13,150.23,548.04,94.49,59.49-22.34,98.47-60.07,124.81-117.09,3.99-9.53,10.89-16.8,18.12-23.84,7.91-8.32,12.17-19.18,14.62-31.93,6.81-36.95-5.59-87.7-26.19-113.65-12.5-17.33-35-20.81-50.63-34.23Z"/>
    <path class="cls-10" d="M259.49,709.57s253.51,245.43,561.63-.71c0,0-281.12,154.14-561.63.71Z"/>
  </g>
  <g id="Smug">
    <g class="cls-12">
      <g>
        <g>
          <ellipse class="cls-9" cx="365.68" cy="446.96" rx="65.32" ry="77.28"/>
          <circle class="cls-6" cx="365.56" cy="454.67" r="30.93"/>
          <circle class="cls-2" cx="336.66" cy="437" r="14.41"/>
        </g>
        <ellipse class="cls-4" cx="365.68" cy="446.96" rx="65.32" ry="77.28"/>
      </g>
    </g>
    <rect class="cls-9" x="290" y="435" width="200.12" height="26" rx="12" ry="12"/>
    <g class="cls-5">
      <g>
        <g>
          <ellipse class="cls-9" cx="664.38" cy="447.41" rx="65.32" ry="77.28"/>
          <circle class="cls-6" cx="664.27" cy="455.12" r="30.93"/>
          <circle class="cls-2" cx="635.37" cy="437.46" r="14.41"/>
        </g>
        <ellipse class="cls-4" cx="664.38" cy="447.41" rx="65.32" ry="77.28"/>
      </g>
    </g>
    <rect class="cls-9" x="588.88" y="435.45" width="200.12" height="26" rx="12" ry="12"/>
    <g>
      <path class="cls-8" d="M599.05,601.84c-14.74-8.44-21.92-18.94-33.06-30.8-7.66-8.16-16.78-11.94-25.99-12.12-9.21.18-18.33,3.96-25.99,12.12-11.14,11.86-18.31,22.36-33.06,30.8-7.05,4.04-28.25,11.05-29.75,19.18,1.47.2,2.27-1.73,3.2-1.92,1.74-.35,8.63,1.35,11.75,1.26,16.32-.45,30.24-12.6,47.87-13.9,6.9-.51,16.21-1.05,25.97-1.24,9.76.2,19.07.73,25.97,1.24,17.63,1.31,31.55,13.46,47.87,13.9,3.13.09,10.01-1.61,11.75-1.26.93.19,1.73,2.12,3.2,1.92-1.51-8.13-22.71-15.15-29.75-19.18Z"/>
      <path class="cls-11" d="M471.77,620h136.46c30.18,0,43.29,7.12,19.49,10.58l-71.76,13.3c-11.94,1.73-28.78,1.66-40.23-.19l-64.7-13.3c-22.22-3.58-8.64-10.39,20.74-10.39Z"/>
      <path class="cls-7" d="M654.28,618.6c-2.33-.47-11.54,1.8-15.73,1.69-21.84-.6-40.47-16.86-64.06-18.61-9.18-.68-21.52-1.39-34.49-1.66h0c-12.97.27-25.31.98-34.49,1.66-23.59,1.75-42.22,18.01-64.06,18.61-4.19.11-13.4-2.16-15.73-1.69-1.25.25,4.59,4.41,5.02,5.07.24.37.45.72.69.86,23.25,13.53,42.04,4.87,65.75,1.34,12.87-1.92,27.75-2.69,42.81-2.57h0c15.07-.12,29.94.66,42.81,2.57,23.71,3.54,42.5,12.19,65.75-1.34.24-.14.46-.49.69-.86.43-.66,6.27-4.82,5.02-5.07Z"/>
    </g>
    <g>
      <path class="cls-6" d="M292,383.62c1.75-.16,3.51-.31,5.26-.47,4.78-.43,9.55-.85,14.33-1.28,7.07-.63,14.14-1.26,21.21-1.88,8.63-.77,17.26-1.53,25.89-2.29,9.46-.84,18.92-1.67,28.37-2.5s19.11-1.68,28.67-2.52c8.92-.78,17.85-1.56,26.77-2.33,7.56-.65,15.12-1.31,22.68-1.95,5.46-.46,10.93-.93,16.4-1.37,2.63-.21,5.27-.36,7.91-.59.93-.08-.46-.05-.85-.34,1.08.82,2.8.17,3.42-.9.75-1.28.18-2.6-.9-3.42-.68-.51-1.79-.34-2.59-.29-1.31.08-2.61.19-3.91.29-4.8.37-9.59.78-14.39,1.18-7.07.6-14.14,1.2-21.22,1.81-8.67.75-17.34,1.5-26.01,2.26-9.5.83-19.01,1.66-28.51,2.5s-19.11,1.68-28.66,2.53c-8.95.79-17.9,1.58-26.85,2.38-7.56.67-15.13,1.34-22.69,2.01-5.42.48-10.84.96-16.26,1.45-2.58.23-5.17.44-7.75.69-.11.01-.22.02-.33.03-1.34.12-2.5,1.06-2.5,2.5,0,1.26,1.15,2.62,2.5,2.5h0Z"/>
      <path class="cls-6" d="M789,378.62c-1.77-.16-3.54-.32-5.31-.47-4.81-.43-9.63-.86-14.44-1.29-7.09-.63-14.17-1.26-21.26-1.89-8.68-.77-17.36-1.54-26.04-2.31-9.51-.84-19.01-1.68-28.52-2.52s-19.1-1.68-28.66-2.52c-8.94-.78-17.88-1.56-26.83-2.34-7.55-.65-15.1-1.3-22.65-1.94-5.4-.46-10.8-.91-16.2-1.35-2.54-.2-5.13-.57-7.68-.56-.53,0-1.13,0-1.58.34-1.07.81-1.64,2.16-.9,3.42.62,1.06,2.34,1.72,3.42.9-.38.29-1.78.26-.84.34.36.03.73.04,1.09.06,1.35.09,2.69.19,4.04.3,4.85.38,9.7.79,14.55,1.2,7.12.6,14.24,1.21,21.36,1.83,8.66.75,17.32,1.5,25.98,2.26,9.47.83,18.94,1.66,28.41,2.49s19.1,1.68,28.65,2.53c8.9.79,17.79,1.57,26.69,2.36,7.51.67,15.02,1.33,22.54,2,5.4.48,10.79.96,16.19,1.44,2.54.23,5.09.56,7.64.68.11,0,.22.02.33.03,1.35.12,2.5-1.24,2.5-2.5,0-1.45-1.15-2.38-2.5-2.5h0Z"/>
    </g>
  </g>
</svg>